# AST/ASF file generated using VICON BodyLanguage
# -----------------------------------------------
:version 1.10
:name VICON
:units
  mass 1.0
  length 0.45
  angle deg
:documentation
   .ast/.asf automatically generated from VICON data using
   VICON BodyBuilder and BodyLanguage model FoxedUp or BRILLIANT.MOD
:root
   order TX TY TZ RX RY RZ
   axis XYZ
   position 0 0 0  
   orientation 0 0 0 
:bonedata
  begin
     id 1 
     name lhipjoint
     direction 0.650112 -0.723553 0.232005 
     length 2.45805 
     axis 0 0 0  XYZ
  end
  begin
     id 2 
     name lfemur
     direction 0.34202 -0.939693 0  
     length 7.00073  
     axis 0 0 20  XYZ
    dof rx ry rz
    limits (-160.0 20.0)
           (-70.0 70.0)
           (-60.0 70.0)
  end
  begin
     id 3 
     name ltibia
     direction 0.34202 -0.939693 0   
     length 7.8748   
     axis 0 0 20   XYZ
    dof rx
    limits (-10.0 170.0)
  end
  begin
     id 4 
     name lfoot
     direction 0.0542825 -0.14914 0.987325   
     length 1.75978   
     axis -90 7.62852e-016 20   XYZ
    dof rx rz
    limits (-45.0 90.0)
           (-70.0 20.0)
  end
  begin
     id 5 
     name ltoes
     direction 1.53509e-011 -4.21906e-011 1   
     length 0.893912   
     axis -90 7.62852e-016 20   XYZ
    dof rx
    limits (-90.0 20.0)
  end
  begin
     id 6 
     name rhipjoint
     direction -0.637897 -0.733345 0.235145   
     length 2.42522  
     axis 0 0 0  XYZ 
  end
  begin
     id 7 
     name rfemur
     direction -0.34202 -0.939693 0   
     length 7.02549   
     axis 0 0 -20   XYZ
    dof rx ry rz
    limits (-160.0 20.0)
           (-70.0 70.0)
           (-70.0 60.0)
  end
  begin
     id 8 
     name rtibia
     direction -0.34202 -0.939693 0   
     length 7.71512   
     axis 0 0 -20   XYZ
    dof rx
    limits (-10.0 170.0)
 end
 begin
     id 9 
     name rfoot
     direction -0.0822618 -0.226012 0.970645   
     length 1.90014  
     axis -90 -7.62852e-016 -20   XYZ
    dof rx rz
    limits (-45.0 90.0)
           (-20.0 70.0)
  end
  begin
     id 10 
     name rtoes
     direction -1.53542e-011 -4.21872e-011 1   
     length 0.957341   
     axis -90 -7.62852e-016 -20   XYZ
    dof rx
    limits (-90.0 20.0)
  end
  begin
     id 11 
     name lowerback
     direction -0.0022947 0.999774 -0.0211557   
     length 1.89909   
     axis 0 0 0   XYZ
    dof rx ry rz
    limits (-20.0 45.0)
           (-30.0 30.0)
           (-30.0 30.0)
  end
  begin
     id 12 
     name upperback
     direction 0.0107737 0.998635 0.0511027   
     length 1.8853   
     axis 0 0 0   XYZ
    dof rx ry rz
    limits (-20.0 45.0)
           (-30.0 30.0)
           (-30.0 30.0)
  end
  begin
     id 13 
     name thorax
     direction 0.011824 0.998136 0.0598754   
     length 1.88911   
     axis 0 0 0   XYZ
    dof rx ry rz
    limits (-20.0 45.0)
           (-30.0 30.0)
           (-30.0 30.0)
  end
  begin
     id 14 
     name lowerneck
     direction -0.0685355 0.990319 0.120714   
     length 1.91222   
     axis 0 0 0   XYZ
    dof rx ry rz
    limits (-20.0 45.0)
           (-30.0 30.0)
           (-30.0 30.0)
  end
  begin
     id 15 
     name upperneck
     direction 0.0886204 0.955665 -0.280805   
     length 1.92526   
     axis 0 0 0   XYZ
    dof rx ry rz
    limits (-20.0 45.0)
           (-30.0 30.0)
           (-30.0 30.0)
  end
  begin
     id 16
     name head
     direction 0.0233423 0.993502 -0.111393  
     length 1.96056  
     axis 0 0 0   XYZ
    dof rx ry rz
    limits (-20.0 45.0)
           (-30.0 30.0)
           (-30.0 30.0)
  end
  begin
     id 17 
     name lclavicle
     direction 0.941873 0.32922 0.0670041  
     length 3.31705  
     axis 0 0 0   XYZ
    dof ry rz
    limits (-20.0 10.0)
           (0.0 20.0)
  end
  begin
     id 18 
     name lhumerus
     direction 1 -4.4898e-011 3.38707e-028   
     length 5.29277   
     axis 180 -30 -90   XYZ
    dof rx ry rz
    limits (-60.0 90.0)
           (-90.0 90.0)
           (-90.0 90.0)
  end
  begin
     id 19
     name lradius
     direction 1 -4.48952e-011 1.63213e-028   
     length 2.85226   
     axis 180 -30 -90   XYZ
    dof rx
    limits (-10.0 170.0)
  end
  begin
     id 20
     name lwrist
     direction 1 -4.49001e-011 1.27856e-027   
     length 1.42613   
     axis -1.61767e-015 90 90   XYZ
    dof ry
    limits (-180.0 0.0)
 end
  begin
     id 21 
     name lhand
     direction 1 -4.48976e-011 2.55931e-027   
     length 0.602097   
     axis -1.63363e-015 90 90   XYZ
    dof rx rz
    limits (-90.0 90.0)
           (-45.0 45.0)
  end
  begin
     id 22 
     name lfingers
     direction 1 -4.48986e-011 5.11684e-027   
     length 0.485426   
     axis -3.26723e-015 90 90   XYZ
    dof rx
    limits (0.0 90.0)
  end
  begin
     id 23
     name lthumb
     direction 0.707107 -6.34915e-011 0.707107   
     length 0.696978   
     axis -90 45 -2.25915e-014   XYZ
    dof rx rz
    limits (-45.0 45.0)
           (-45.0 45.0)
  end
  begin
     id 24 
     name rclavicle
     direction -0.939974 0.327078 0.0973096   
     length 3.10337  
     axis 0 0 0   XYZ 
    dof ry rz
    limits (-10.0 20.0)
           (-20.0 0.0)
  end
  begin
     id 25 
     name rhumerus
     direction -1 -4.48975e-011 1.83745e-027  
     length 5.13304   
     axis 180 30 90   XYZ
    dof rx ry rz
    limits (-90.0 60.0)
           (-90.0 90.0)
           (-90.0 90.0)
  end
  begin
     id 26 
     name rradius
     direction -1 -4.48977e-011 7.1775e-029   
     length 2.74305   
     axis 180 30 90   XYZ
    dof rx
    limits (-10.0 170.0)
  end
  begin
     id 27 
     name rwrist
     direction -1 -4.48977e-011 1.27963e-027   
     length 1.37152   
     axis -1.61767e-015 -90 -90   XYZ
    dof ry
    limits (-180.0 0.0)
  end
  begin
     id 28
     name rhand
     direction -1 -4.4888e-011 2.56782e-027   
     length 0.767976   
     axis -1.63363e-015 -90 -90   XYZ
    dof rx rz
    limits (-90.0 90.0)
           (-45.0 45.0)
  end
  begin
     id 29
     name rfingers
     direction -1 -4.48947e-011 5.12384e-027   
     length 0.619162   
     axis -3.26723e-015 -90 -90   XYZ
    dof rx
    limits (0.0 90.0)
  end
  begin
     id 30
     name rthumb
     direction -0.707107 -6.34857e-011 0.707107   
     length 0.888997   
     axis -90 -45 2.25915e-014   XYZ
    dof rx rz
    limits (-45.0 45.0)
           (-45.0 45.0)
  end
:hierarchy
  begin
    root lhipjoint rhipjoint lowerback
    lhipjoint lfemur
    lfemur ltibia
    ltibia lfoot
    lfoot ltoes
    rhipjoint rfemur
    rfemur rtibia
    rtibia rfoot
    rfoot rtoes
    lowerback upperback
    upperback thorax
    thorax lowerneck lclavicle rclavicle
    lowerneck upperneck
    upperneck head
    lclavicle lhumerus
    lhumerus lradius
    lradius lwrist
    lwrist lhand lthumb
    lhand lfingers
    rclavicle rhumerus
    rhumerus rradius
    rradius rwrist
    rwrist rhand rthumb
    rhand rfingers
  end

#!OML:ASF F:\VICON\USERDATA\INSTALL\rory3\rory3.ASF
:FULLY-SPECIFIED
:DEGREES
1916
root 2.51135 16.6443 -0.843084 -4.46896 -8.94394 6.71335
lowerback 9.46643 -4.05686 2.35808
upperback 9.84246 -5.53857 5.86597
thorax 5.4696 -2.90175 5.10616
lowerneck -12.7001 -3.35223 -19.7209
upperneck 17.4539 0.155694 -3.74154
head 7.71192 -1.60162 1.88058
rclavicle -2.8625e-014 -3.18055e-015
rhumerus 48.1726 3.18958 -82.6652
rradius 65.309
rwrist -45.4382
rhand -14.3774 -4.39122
rfingers 7.12502
rthumb 11.7652 -34.0408
lclavicle -2.8625e-014 -3.18055e-015
lhumerus 92.574 -25.3946 24.9639
lradius 39.8534
lwrist 51.7176
lhand -21.166 42.7363
lfingers 7.12502
lthumb 5.2141 -287.348
rfemur -12.9835 10.5389 1.56982
rtibia 34.8188
rfoot -23.1923 -3.46636
rtoes -29.9571
lfemur -9.83746 3.75117 -34.0067
ltibia 33.9233
lfoot -19.2154 1.79732
ltoes -5.97869
1917
root 2.5001 16.6431 -0.845019 -4.45583 -8.87828 6.84915
lowerback 9.47888 -4.16417 2.20803
upperback 9.77935 -5.68265 5.83204
thorax 5.41589 -2.98161 5.16188
lowerneck -12.6683 -3.21494 -19.6287
upperneck 17.4428 0.340109 -3.8905
head 7.68915 -1.52135 1.83708
rclavicle -6.36111e-014 1.90833e-014
rhumerus 48.2061 3.23644 -82.5753
rradius 65.1188
rwrist -45.6008
rhand -13.9117 -4.40768
rfingers 7.12502
rthumb 12.2143 -34.031
lclavicle -6.36111e-014 1.90833e-014
lhumerus 92.4623 -25.6011 25.6406
lradius 39.4221
lwrist 51.1492
lhand -21.5141 43.2935
lfingers 7.12502
lthumb 4.87795 -286.783
rfemur -13.0369 10.5205 1.45179
rtibia 34.8973
rfoot -23.2429 -3.50492
rtoes -29.833
lfemur -9.81891 3.74281 -34.1087
ltibia 33.8464
lfoot -19.1888 1.82193
ltoes -6.61928
1918
root 2.48743 16.6432 -0.848934 -4.42882 -8.7975 7.03707
lowerback 9.43729 -4.28837 1.90654
upperback 9.73201 -5.86346 5.80359
thorax 5.42947 -3.0905 5.30455
lowerneck -12.6783 -3.09889 -19.6081
upperneck 17.4332 0.506589 -3.96365
head 7.67573 -1.448 1.82706
rclavicle 6.99722e-014 -4.45278e-014
rhumerus 48.2969 3.35908 -82.4929
rradius 64.9628
rwrist -45.8031
rhand -13.6283 -4.51943
rfingers 7.12502
rthumb 12.4875 -34.1263
lclavicle 6.99722e-014 -4.45278e-014
lhumerus 92.389 -25.613 25.9408
lradius 39.1866
lwrist 51.0044
lhand -21.7986 43.7864
lfingers 7.12502
lthumb 4.60327 -286.284
rfemur -13.1169 10.5146 1.27972
rtibia 34.9828
rfoot -23.2909 -3.52929
rtoes -29.6434
lfemur -9.83381 3.75562 -34.2567
ltibia 33.7544
lfoot -19.125 1.78032
ltoes -6.84991
1919
root 2.4764 16.6426 -0.849979 -4.499 -8.72906 7.17281
lowerback 9.42869 -4.3983 1.75284
upperback 9.74801 -6.01845 5.7461
thorax 5.4744 -3.17643 5.33351
lowerneck -12.7522 -3.02589 -19.5961
upperneck 17.4732 0.628446 -3.98634
head 7.69324 -1.39659 1.83002
rclavicle -2.54444e-014 6.36111e-015
rhumerus 48.4036 3.36995 -82.3458
rradius 64.8276
rwrist -46.1332
rhand -13.5085 -4.52278
rfingers 7.12502
rthumb 12.603 -34.1226
lclavicle -2.54444e-014 6.36111e-015
lhumerus 92.3875 -25.6465 26.31
lradius 38.9487
lwrist 50.8156
lhand -21.855 43.8257
lfingers 7.12502
lthumb 4.5488 -286.243
rfemur -13.0743 10.4961 1.17608
rtibia 35.0699
rfoot -23.333 -3.54717
rtoes -29.6578
lfemur -9.70361 3.78786 -34.355
ltibia 33.6302
lfoot -18.989 1.73489
ltoes -7.5028
1920
root 2.46681 16.6435 -0.847391 -4.543 -8.65063 7.27755
lowerback 9.39844 -4.52983 1.66571
upperback 9.73507 -6.19885 5.72247
thorax 5.49999 -3.2718 5.36132
lowerneck -12.6737 -2.90921 -19.7358
upperneck 17.3833 0.781783 -3.96652
head 7.63859 -1.32274 1.8735
rclavicle 2.06736e-014 -1.27222e-014
rhumerus 48.472 3.41325 -82.2557
rradius 64.6639
rwrist -46.3324
rhand -13.2938 -4.4591
rfingers 7.12502
rthumb 12.81 -34.0461
lclavicle 2.06736e-014 -1.27222e-014
lhumerus 92.2018 -25.7706 27.0168
lradius 38.6014
lwrist 50.3497
lhand -21.8818 44.0754
lfingers 7.12502
lthumb 4.52292 -285.993
rfemur -13.0181 10.465 1.09372
rtibia 35.1329
rfoot -23.406 -3.54543
rtoes -29.3818
lfemur -9.58051 3.79265 -34.4315
ltibia 33.5261
lfoot -18.9746 1.59435
ltoes -7.0853
1921
root 2.45741 16.6466 -0.846546 -4.57071 -8.61584 7.32981
lowerback 9.37808 -4.65594 1.62263
upperback 9.73065 -6.36957 5.69449
thorax 5.52344 -3.35943 5.35997
lowerneck -12.5851 -2.76249 -19.7858
upperneck 17.2763 0.959269 -3.98078
head 7.57344 -1.2329 1.89496
rclavicle -4.29375e-014 6.67916e-014
rhumerus 48.6107 3.50452 -82.1521
rradius 64.4645
rwrist -46.4819
rhand -13.1512 -4.38824
rfingers 7.12502
rthumb 12.9474 -33.9665
lclavicle -4.29375e-014 6.67916e-014
lhumerus 91.9875 -25.9261 27.7521
lradius 38.3036
lwrist 49.8104
lhand -21.9791 44.3784
lfingers 7.12502
lthumb 4.42898 -285.688
rfemur -13.0015 10.4857 1.08138
rtibia 35.1825
rfoot -23.4038 -3.59149
rtoes -29.2673
lfemur -9.48913 3.7941 -34.4394
ltibia 33.4174
lfoot -18.9858 1.51779
ltoes -6.74526
1922
root 2.44609 16.6484 -0.848922 -4.56183 -8.54867 7.29491
lowerback 9.32398 -4.72745 1.73812
upperback 9.75396 -6.45985 5.62058
thorax 5.56359 -3.3937 5.21468
lowerneck -12.5683 -2.69334 -19.6203
upperneck 17.2386 1.02152 -4.03528
head 7.55112 -1.19409 1.85956
rclavicle 0 2.22639e-014
rhumerus 48.8053 3.30854 -82.172
rradius 64.1543
rwrist -46.4644
rhand -12.8542 -4.35645
rfingers 7.12502
rthumb 13.2337 -33.9164
lclavicle 0 2.22639e-014
lhumerus 92.0829 -26.122 28.3024
lradius 37.973
lwrist 49.3152
lhand -21.9312 44.3971
lfingers 7.12502
lthumb 4.47524 -285.67
rfemur -12.9841 10.491 1.17027
rtibia 35.2036
rfoot -23.4022 -3.64922
rtoes -29.1603
lfemur -9.45637 3.82435 -34.3393
ltibia 33.3253
lfoot -18.9339 1.36059
ltoes -6.52592
1923
root 2.43569 16.6496 -0.84991 -4.58282 -8.48241 7.36855
lowerback 9.35644 -4.82512 1.6752
upperback 9.73622 -6.58883 5.58905
thorax 5.54077 -3.46103 5.22409
lowerneck -12.6044 -2.59266 -19.6515
upperneck 17.2463 1.17251 -4.03178
head 7.54875 -1.12558 1.88065
rclavicle -1.59028e-015 -4.45278e-014
rhumerus 48.9279 3.27564 -82.0425
rradius 63.915
rwrist -46.4904
rhand -12.5267 -4.33821
rfingers 7.12502
rthumb 13.5494 -33.8774
lclavicle -1.59028e-015 -4.45278e-014
lhumerus 91.9785 -26.2828 29.0458
lradius 37.5966
lwrist 48.7543
lhand -21.8173 44.4635
lfingers 7.12502
lthumb 4.58518 -285.606
rfemur -12.9525 10.4027 1.12046
rtibia 35.2135
rfoot -23.414 -3.6056
rtoes -29.0208
lfemur -9.36659 3.84356 -34.3774
ltibia 33.2093
lfoot -18.9129 1.35219
ltoes -7.16115
1924
root 2.42694 16.6517 -0.845933 -4.69192 -8.48854 7.43521
lowerback 9.42082 -4.94346 1.60318
upperback 9.75533 -6.74866 5.57694
thorax 5.54804 -3.54669 5.26207
lowerneck -12.6838 -2.49842 -19.8001
upperneck 17.298 1.34761 -3.99853
head 7.56823 -1.0554 1.93083
rclavicle 3.26007e-014 -5.725e-014
rhumerus 49.0826 3.32012 -81.9108
rradius 63.6907
rwrist -46.4632
rhand -12.0232 -4.35775
rfingers 7.12502
rthumb 14.0346 -33.8639
lclavicle 3.26007e-014 -5.725e-014
lhumerus 91.6773 -26.4356 30.0982
lradius 37.1299
lwrist 48.0241
lhand -22.0226 44.6384
lfingers 7.12502
lthumb 4.38693 -285.427
rfemur -12.8261 10.4339 1.09712
rtibia 35.224
rfoot -23.4658 -3.54559
rtoes -28.7572
lfemur -9.18984 3.93024 -34.4091
ltibia 33.11
lfoot -18.823 1.50979
ltoes -8.46578
1925
root 2.41825 16.6548 -0.836526 -4.82024 -8.60826 7.54264
lowerback 9.31097 -4.93811 1.72291
upperback 9.84604 -6.74116 5.39613
thorax 5.66618 -3.52739 4.9895
lowerneck -12.6146 -2.46895 -19.6706
upperneck 17.3237 1.3399 -3.96333
head 7.56245 -1.04806 1.92402
rclavicle 5.24792e-014 -8.26944e-014
rhumerus 49.1718 2.95276 -81.9404
rradius 63.4234
rwrist -46.1664
rhand -11.2465 -4.21478
rfingers 7.12502
rthumb 14.783 -33.6675
lclavicle 5.24792e-014 -8.26944e-014
lhumerus 91.786 -26.7709 30.8885
lradius 36.7141
lwrist 47.2934
lhand -22.4012 44.5956
lfingers 7.12502
lthumb 4.02135 -285.463
rfemur -12.7411 10.5147 1.02683
rtibia 35.2684
rfoot -23.5458 -3.42591
rtoes -28.8817
lfemur -8.98239 4.10523 -34.4689
ltibia 33.0001
lfoot -18.8005 1.63273
ltoes -9.30836
1926
root 2.4042 16.6537 -0.838833 -4.83905 -8.53343 7.65116
lowerback 9.36107 -5.02397 1.67858
upperback 9.80376 -6.84611 5.27648
thorax 5.58855 -3.57638 4.89681
lowerneck -12.5522 -2.36234 -19.5559
upperneck 17.3158 1.44697 -3.97946
head 7.53904 -0.989563 1.91356
rclavicle -1.43125e-014 -2.8625e-014
rhumerus 49.197 2.80056 -81.9058
rradius 63.2398
rwrist -46.1149
rhand -10.7134 -4.23388
rfingers 7.12502
rthumb 15.2966 -33.6482
lclavicle -1.43125e-014 -2.8625e-014
lhumerus 91.7162 -27.0581 31.5697
lradius 36.354
lwrist 46.6235
lhand -22.5399 44.242
lfingers 7.12502
lthumb 3.8874 -285.814
rfemur -12.7433 10.5156 0.959883
rtibia 35.3421
rfoot -23.5521 -3.48354
rtoes -28.9469
lfemur -8.93332 4.12789 -34.5138
ltibia 32.9312
lfoot -18.8393 1.39449
ltoes -8.5183
1927
root 2.3879 16.6525 -0.851333 -4.76034 -8.23476 7.76272
lowerback 9.52865 -5.20351 1.48726
upperback 9.66322 -7.07286 5.24055
thorax 5.38015 -3.69865 4.99434
lowerneck -12.6756 -2.23578 -19.5805
upperneck 17.4642 1.65848 -3.93078
head 7.59411 -0.901384 1.95525
rclavicle -9.70069e-014 2.22639e-014
rhumerus 49.2508 2.86538 -81.7604
rradius 62.9838
rwrist -46.2434
rhand -10.3576 -3.85917
rfingers 7.12502
rthumb 15.6393 -33.247
lclavicle -9.70069e-014 2.22639e-014
lhumerus 91.4688 -27.3688 32.6997
lradius 35.672
lwrist 45.6375
lhand -22.0936 44.0519
lfingers 7.12502
lthumb 4.31837 -286.012
rfemur -12.7922 10.4078 0.883638
rtibia 35.447
rfoot -23.5405 -3.64798
rtoes -28.8644
lfemur -9.01595 3.97873 -34.5787
ltibia 32.8851
lfoot -18.7313 1.09371
ltoes -7.60712
1928
root 2.37376 16.6516 -0.859072 -4.68956 -8.05028 7.80034
lowerback 9.78949 -5.34901 1.32842
upperback 9.45418 -7.24748 5.29772
thorax 5.05341 -3.79554 5.18472
lowerneck -12.6567 -2.09879 -19.6527
upperneck 17.569 1.87908 -4.02339
head 7.6134 -0.819924 1.95732
rclavicle 1.26427e-013 -7.63333e-014
rhumerus 49.194 3.00799 -81.4578
rradius 62.6346
rwrist -46.3536
rhand -9.96716 -2.9724
rfingers 7.12502
rthumb 16.0153 -32.3304
lclavicle 1.26427e-013 -7.63333e-014
lhumerus 90.9897 -27.7865 34.3035
lradius 34.8441
lwrist 44.5158
lhand -21.9122 43.9475
lfingers 7.12502
lthumb 4.49352 -286.12
rfemur -12.8625 10.2834 0.878231
rtibia 35.5555
rfoot -23.5602 -3.70801
rtoes -28.716
lfemur -9.0928 3.938 -34.5672
ltibia 32.8655
lfoot -18.6983 0.931957
ltoes -7.73854
